<svg width="520" height="408" viewBox="0 0 520 408" fill="none" xmlns="http://www.w3.org/2000/svg">
<rect width="519.376" height="408" rx="22" fill="#313131"/>
<rect x="55.6885" y="55.688" width="71.5989" height="71.5989" rx="6" fill="white"/>
<rect x="168.2" y="55.688" width="71.5989" height="71.5989" rx="6" fill="white"/>
<rect x="55.6885" y="168.201" width="71.5989" height="71.5989" rx="6" fill="white"/>
<rect x="55.6885" y="280.713" width="71.5989" height="71.5989" rx="6" fill="white"/>
<rect x="168.2" y="280.713" width="71.5989" height="71.5989" rx="6" fill="white"/>
<rect x="280.713" y="280.713" width="71.5989" height="71.5989" rx="6" fill="white"/>
<rect x="168.2" y="168.201" width="71.5989" height="71.5989" rx="6" fill="white"/>
<rect x="382.997" y="120.468" width="48.8691" height="18.1838" rx="6" fill="white"/>
<rect x="433.003" y="267.075" width="48.8691" height="18.1838" rx="6" fill="white"/>
<rect x="280.713" y="168.201" width="71.5989" height="71.5989" rx="6" fill="white"/>
<rect x="280.713" y="55.688" width="71.5989" height="71.5989" rx="6" fill="white"/>
<rect x="402.317" y="55.688" width="9.09192" height="296.624" rx="4.54596" fill="white"/>
<rect x="452.323" y="55.688" width="9.09192" height="296.624" rx="4.54596" fill="white"/>
</svg>
